<mxfile host="app.diagrams.net" modified="2022-09-26T09:24:19.829Z" agent="5.0 (Macintosh; Intel Mac OS X 10_15_7) AppleWebKit/537.36 (KHTML, like Gecko) Chrome/105.0.0.0 Safari/537.36" etag="AkkHjpOqbNxmrJ6eATSk" version="20.3.6" type="github">
  <diagram id="F0M1StGIOvLBScYlko5w" name="第 1 页">
    <mxGraphModel dx="2009" dy="1621" grid="1" gridSize="10" guides="1" tooltips="1" connect="1" arrows="1" fold="1" page="1" pageScale="1" pageWidth="583" pageHeight="827" background="#FFFFFF" math="0" shadow="0">
      <root>
        <mxCell id="0" />
        <mxCell id="1" parent="0" />
        <mxCell id="rdretxYNlBGWcE4XQ4-o-54" style="edgeStyle=orthogonalEdgeStyle;rounded=0;orthogonalLoop=1;jettySize=auto;html=1;fontSize=14;" edge="1" parent="1" source="rdretxYNlBGWcE4XQ4-o-1" target="rdretxYNlBGWcE4XQ4-o-53">
          <mxGeometry relative="1" as="geometry" />
        </mxCell>
        <mxCell id="rdretxYNlBGWcE4XQ4-o-1" value="&lt;font style=&quot;font-size: 14px;&quot;&gt;注册&lt;/font&gt;" style="rounded=1;whiteSpace=wrap;html=1;" vertex="1" parent="1">
          <mxGeometry x="220" y="-20" width="120" height="70" as="geometry" />
        </mxCell>
        <mxCell id="rdretxYNlBGWcE4XQ4-o-19" style="edgeStyle=orthogonalEdgeStyle;rounded=0;orthogonalLoop=1;jettySize=auto;html=1;fontSize=14;" edge="1" parent="1" source="rdretxYNlBGWcE4XQ4-o-2" target="rdretxYNlBGWcE4XQ4-o-18">
          <mxGeometry relative="1" as="geometry" />
        </mxCell>
        <mxCell id="rdretxYNlBGWcE4XQ4-o-2" value="校内人员注册" style="rounded=1;whiteSpace=wrap;html=1;fontSize=14;" vertex="1" parent="1">
          <mxGeometry x="110" y="384" width="120" height="60" as="geometry" />
        </mxCell>
        <mxCell id="rdretxYNlBGWcE4XQ4-o-28" style="edgeStyle=orthogonalEdgeStyle;rounded=0;orthogonalLoop=1;jettySize=auto;html=1;fontSize=14;" edge="1" parent="1" source="rdretxYNlBGWcE4XQ4-o-3" target="rdretxYNlBGWcE4XQ4-o-27">
          <mxGeometry relative="1" as="geometry" />
        </mxCell>
        <mxCell id="rdretxYNlBGWcE4XQ4-o-3" value="校外人员注册" style="rounded=1;whiteSpace=wrap;html=1;fontSize=14;" vertex="1" parent="1">
          <mxGeometry x="330" y="384" width="120" height="60" as="geometry" />
        </mxCell>
        <mxCell id="rdretxYNlBGWcE4XQ4-o-13" style="edgeStyle=orthogonalEdgeStyle;rounded=0;orthogonalLoop=1;jettySize=auto;html=1;fontSize=14;" edge="1" parent="1" source="rdretxYNlBGWcE4XQ4-o-10" target="rdretxYNlBGWcE4XQ4-o-12">
          <mxGeometry relative="1" as="geometry" />
        </mxCell>
        <mxCell id="rdretxYNlBGWcE4XQ4-o-10" value="数据校验" style="rounded=1;whiteSpace=wrap;html=1;fontSize=14;" vertex="1" parent="1">
          <mxGeometry x="220" y="180" width="120" height="60" as="geometry" />
        </mxCell>
        <mxCell id="rdretxYNlBGWcE4XQ4-o-14" style="edgeStyle=orthogonalEdgeStyle;rounded=0;orthogonalLoop=1;jettySize=auto;html=1;fontSize=14;" edge="1" parent="1" source="rdretxYNlBGWcE4XQ4-o-12" target="rdretxYNlBGWcE4XQ4-o-2">
          <mxGeometry relative="1" as="geometry" />
        </mxCell>
        <mxCell id="rdretxYNlBGWcE4XQ4-o-16" value="是" style="edgeLabel;html=1;align=center;verticalAlign=middle;resizable=0;points=[];fontSize=14;" vertex="1" connectable="0" parent="rdretxYNlBGWcE4XQ4-o-14">
          <mxGeometry x="0.0118" y="1" relative="1" as="geometry">
            <mxPoint as="offset" />
          </mxGeometry>
        </mxCell>
        <mxCell id="rdretxYNlBGWcE4XQ4-o-15" style="edgeStyle=orthogonalEdgeStyle;rounded=0;orthogonalLoop=1;jettySize=auto;html=1;fontSize=14;" edge="1" parent="1" source="rdretxYNlBGWcE4XQ4-o-12" target="rdretxYNlBGWcE4XQ4-o-3">
          <mxGeometry relative="1" as="geometry" />
        </mxCell>
        <mxCell id="rdretxYNlBGWcE4XQ4-o-17" value="否&lt;br&gt;" style="edgeLabel;html=1;align=center;verticalAlign=middle;resizable=0;points=[];fontSize=14;" vertex="1" connectable="0" parent="rdretxYNlBGWcE4XQ4-o-15">
          <mxGeometry x="-0.0824" y="-2" relative="1" as="geometry">
            <mxPoint as="offset" />
          </mxGeometry>
        </mxCell>
        <mxCell id="rdretxYNlBGWcE4XQ4-o-12" value="邮箱是否为校园邮箱" style="rounded=1;whiteSpace=wrap;html=1;fontSize=14;" vertex="1" parent="1">
          <mxGeometry x="220" y="270" width="120" height="60" as="geometry" />
        </mxCell>
        <mxCell id="rdretxYNlBGWcE4XQ4-o-21" style="edgeStyle=orthogonalEdgeStyle;rounded=0;orthogonalLoop=1;jettySize=auto;html=1;fontSize=14;" edge="1" parent="1" source="rdretxYNlBGWcE4XQ4-o-18" target="rdretxYNlBGWcE4XQ4-o-20">
          <mxGeometry relative="1" as="geometry" />
        </mxCell>
        <mxCell id="rdretxYNlBGWcE4XQ4-o-24" value="是" style="edgeLabel;html=1;align=center;verticalAlign=middle;resizable=0;points=[];fontSize=14;" vertex="1" connectable="0" parent="rdretxYNlBGWcE4XQ4-o-21">
          <mxGeometry x="0.1111" y="-1" relative="1" as="geometry">
            <mxPoint as="offset" />
          </mxGeometry>
        </mxCell>
        <mxCell id="rdretxYNlBGWcE4XQ4-o-23" style="edgeStyle=orthogonalEdgeStyle;rounded=0;orthogonalLoop=1;jettySize=auto;html=1;fontSize=14;" edge="1" parent="1" source="rdretxYNlBGWcE4XQ4-o-18" target="rdretxYNlBGWcE4XQ4-o-22">
          <mxGeometry relative="1" as="geometry" />
        </mxCell>
        <mxCell id="rdretxYNlBGWcE4XQ4-o-25" value="否" style="edgeLabel;html=1;align=center;verticalAlign=middle;resizable=0;points=[];fontSize=14;" vertex="1" connectable="0" parent="rdretxYNlBGWcE4XQ4-o-23">
          <mxGeometry x="-0.1176" y="3" relative="1" as="geometry">
            <mxPoint as="offset" />
          </mxGeometry>
        </mxCell>
        <mxCell id="rdretxYNlBGWcE4XQ4-o-18" value="校园邮账号是否包含英文字母" style="rounded=1;whiteSpace=wrap;html=1;fontSize=14;" vertex="1" parent="1">
          <mxGeometry x="110" y="470" width="120" height="60" as="geometry" />
        </mxCell>
        <mxCell id="rdretxYNlBGWcE4XQ4-o-29" style="edgeStyle=orthogonalEdgeStyle;rounded=0;orthogonalLoop=1;jettySize=auto;html=1;fontSize=14;" edge="1" parent="1" source="rdretxYNlBGWcE4XQ4-o-20" target="rdretxYNlBGWcE4XQ4-o-26">
          <mxGeometry relative="1" as="geometry">
            <Array as="points">
              <mxPoint x="50" y="760" />
              <mxPoint x="280" y="760" />
            </Array>
          </mxGeometry>
        </mxCell>
        <mxCell id="rdretxYNlBGWcE4XQ4-o-20" value="身份：老师" style="rounded=1;whiteSpace=wrap;html=1;fontSize=14;" vertex="1" parent="1">
          <mxGeometry x="-10" y="590" width="120" height="60" as="geometry" />
        </mxCell>
        <mxCell id="rdretxYNlBGWcE4XQ4-o-30" style="edgeStyle=orthogonalEdgeStyle;rounded=0;orthogonalLoop=1;jettySize=auto;html=1;fontSize=14;" edge="1" parent="1" source="rdretxYNlBGWcE4XQ4-o-22" target="rdretxYNlBGWcE4XQ4-o-26">
          <mxGeometry relative="1" as="geometry" />
        </mxCell>
        <mxCell id="rdretxYNlBGWcE4XQ4-o-22" value="身份：学生" style="rounded=1;whiteSpace=wrap;html=1;fontSize=14;" vertex="1" parent="1">
          <mxGeometry x="220" y="590" width="120" height="60" as="geometry" />
        </mxCell>
        <mxCell id="rdretxYNlBGWcE4XQ4-o-42" style="edgeStyle=orthogonalEdgeStyle;rounded=0;orthogonalLoop=1;jettySize=auto;html=1;fontSize=14;" edge="1" parent="1" source="rdretxYNlBGWcE4XQ4-o-26" target="rdretxYNlBGWcE4XQ4-o-41">
          <mxGeometry relative="1" as="geometry" />
        </mxCell>
        <mxCell id="rdretxYNlBGWcE4XQ4-o-26" value="获取邮箱验证码" style="rounded=1;whiteSpace=wrap;html=1;fontSize=14;" vertex="1" parent="1">
          <mxGeometry x="220" y="820" width="120" height="60" as="geometry" />
        </mxCell>
        <mxCell id="rdretxYNlBGWcE4XQ4-o-32" style="edgeStyle=orthogonalEdgeStyle;rounded=0;orthogonalLoop=1;jettySize=auto;html=1;fontSize=14;" edge="1" parent="1" source="rdretxYNlBGWcE4XQ4-o-27" target="rdretxYNlBGWcE4XQ4-o-26">
          <mxGeometry relative="1" as="geometry">
            <Array as="points">
              <mxPoint x="390" y="760" />
              <mxPoint x="280" y="760" />
            </Array>
          </mxGeometry>
        </mxCell>
        <mxCell id="rdretxYNlBGWcE4XQ4-o-27" value="身份：外来人员" style="rounded=1;whiteSpace=wrap;html=1;fontSize=14;" vertex="1" parent="1">
          <mxGeometry x="330" y="480" width="120" height="60" as="geometry" />
        </mxCell>
        <mxCell id="rdretxYNlBGWcE4XQ4-o-39" style="edgeStyle=orthogonalEdgeStyle;rounded=0;orthogonalLoop=1;jettySize=auto;html=1;fontSize=14;" edge="1" parent="1" source="rdretxYNlBGWcE4XQ4-o-34" target="rdretxYNlBGWcE4XQ4-o-38">
          <mxGeometry relative="1" as="geometry" />
        </mxCell>
        <mxCell id="rdretxYNlBGWcE4XQ4-o-34" value="将验证码存入redis，设置过期时间300s" style="rounded=1;whiteSpace=wrap;html=1;fontSize=14;" vertex="1" parent="1">
          <mxGeometry x="210" y="1010" width="140" height="60" as="geometry" />
        </mxCell>
        <mxCell id="rdretxYNlBGWcE4XQ4-o-52" style="edgeStyle=orthogonalEdgeStyle;rounded=0;orthogonalLoop=1;jettySize=auto;html=1;fontSize=14;" edge="1" parent="1" source="rdretxYNlBGWcE4XQ4-o-36" target="rdretxYNlBGWcE4XQ4-o-51">
          <mxGeometry relative="1" as="geometry" />
        </mxCell>
        <mxCell id="rdretxYNlBGWcE4XQ4-o-36" value="使用crypto对密码进行md5加密" style="rounded=1;whiteSpace=wrap;html=1;fontSize=14;" vertex="1" parent="1">
          <mxGeometry x="220" y="1211" width="120" height="60" as="geometry" />
        </mxCell>
        <mxCell id="rdretxYNlBGWcE4XQ4-o-40" value="是" style="edgeStyle=orthogonalEdgeStyle;rounded=0;orthogonalLoop=1;jettySize=auto;html=1;fontSize=14;" edge="1" parent="1" source="rdretxYNlBGWcE4XQ4-o-38" target="rdretxYNlBGWcE4XQ4-o-36">
          <mxGeometry relative="1" as="geometry" />
        </mxCell>
        <mxCell id="rdretxYNlBGWcE4XQ4-o-49" style="edgeStyle=orthogonalEdgeStyle;rounded=0;orthogonalLoop=1;jettySize=auto;html=1;fontSize=14;" edge="1" parent="1" source="rdretxYNlBGWcE4XQ4-o-38" target="rdretxYNlBGWcE4XQ4-o-48">
          <mxGeometry relative="1" as="geometry" />
        </mxCell>
        <mxCell id="rdretxYNlBGWcE4XQ4-o-50" value="否" style="edgeLabel;html=1;align=center;verticalAlign=middle;resizable=0;points=[];fontSize=14;" vertex="1" connectable="0" parent="rdretxYNlBGWcE4XQ4-o-49">
          <mxGeometry y="-1" relative="1" as="geometry">
            <mxPoint as="offset" />
          </mxGeometry>
        </mxCell>
        <mxCell id="rdretxYNlBGWcE4XQ4-o-38" value="验证用户输入邮箱验证码是否正确" style="rounded=1;whiteSpace=wrap;html=1;fontSize=14;" vertex="1" parent="1">
          <mxGeometry x="220" y="1100" width="120" height="60" as="geometry" />
        </mxCell>
        <mxCell id="rdretxYNlBGWcE4XQ4-o-43" value="否" style="edgeStyle=orthogonalEdgeStyle;rounded=0;orthogonalLoop=1;jettySize=auto;html=1;fontSize=14;" edge="1" parent="1" source="rdretxYNlBGWcE4XQ4-o-41" target="rdretxYNlBGWcE4XQ4-o-34">
          <mxGeometry relative="1" as="geometry" />
        </mxCell>
        <mxCell id="rdretxYNlBGWcE4XQ4-o-45" style="edgeStyle=orthogonalEdgeStyle;rounded=0;orthogonalLoop=1;jettySize=auto;html=1;fontSize=14;" edge="1" parent="1" source="rdretxYNlBGWcE4XQ4-o-41" target="rdretxYNlBGWcE4XQ4-o-44">
          <mxGeometry relative="1" as="geometry" />
        </mxCell>
        <mxCell id="rdretxYNlBGWcE4XQ4-o-47" value="是" style="edgeLabel;html=1;align=center;verticalAlign=middle;resizable=0;points=[];fontSize=14;" vertex="1" connectable="0" parent="rdretxYNlBGWcE4XQ4-o-45">
          <mxGeometry x="0.1" y="-2" relative="1" as="geometry">
            <mxPoint as="offset" />
          </mxGeometry>
        </mxCell>
        <mxCell id="rdretxYNlBGWcE4XQ4-o-46" value="" style="edgeStyle=orthogonalEdgeStyle;rounded=0;orthogonalLoop=1;jettySize=auto;html=1;fontSize=14;" edge="1" parent="1" source="rdretxYNlBGWcE4XQ4-o-41" target="rdretxYNlBGWcE4XQ4-o-34">
          <mxGeometry relative="1" as="geometry" />
        </mxCell>
        <mxCell id="rdretxYNlBGWcE4XQ4-o-41" value="判断邮箱是否注册过" style="rounded=1;whiteSpace=wrap;html=1;fontSize=14;" vertex="1" parent="1">
          <mxGeometry x="230" y="910" width="100" height="60" as="geometry" />
        </mxCell>
        <mxCell id="rdretxYNlBGWcE4XQ4-o-44" value="返回响应(邮箱已被注册过)" style="rounded=1;whiteSpace=wrap;html=1;fontSize=14;" vertex="1" parent="1">
          <mxGeometry x="410" y="910" width="120" height="60" as="geometry" />
        </mxCell>
        <mxCell id="rdretxYNlBGWcE4XQ4-o-48" value="返回响应(邮箱验证码错误)" style="rounded=1;whiteSpace=wrap;html=1;fontSize=14;" vertex="1" parent="1">
          <mxGeometry x="440" y="1100" width="120" height="60" as="geometry" />
        </mxCell>
        <mxCell id="rdretxYNlBGWcE4XQ4-o-51" value="将用户信息存入数据库" style="rounded=1;whiteSpace=wrap;html=1;fontSize=14;" vertex="1" parent="1">
          <mxGeometry x="220" y="1320" width="120" height="60" as="geometry" />
        </mxCell>
        <mxCell id="rdretxYNlBGWcE4XQ4-o-55" style="edgeStyle=orthogonalEdgeStyle;rounded=0;orthogonalLoop=1;jettySize=auto;html=1;fontSize=14;" edge="1" parent="1" source="rdretxYNlBGWcE4XQ4-o-53" target="rdretxYNlBGWcE4XQ4-o-10">
          <mxGeometry relative="1" as="geometry" />
        </mxCell>
        <mxCell id="rdretxYNlBGWcE4XQ4-o-53" value="传入参数：&lt;br&gt;账号、邮箱、密码、邮件验证码、用户名" style="rounded=1;whiteSpace=wrap;html=1;fontSize=14;" vertex="1" parent="1">
          <mxGeometry x="200" y="90" width="160" height="70" as="geometry" />
        </mxCell>
      </root>
    </mxGraphModel>
  </diagram>
</mxfile>
